<svg width="48" height="48" viewBox="0 0 48 48" fill="none" xmlns="http://www.w3.org/2000/svg">
<path fill-rule="evenodd" clip-rule="evenodd" d="M10.9042 13.1561C12.7126 8.69774 17.2424 4.48047 24 4.48047C31.2705 4.48047 37.4669 9.42727 38.8255 17.4325C40.7439 17.7196 42.7523 18.4543 44.4062 19.6828C46.4617 21.2097 48 23.5363 48 26.643C48 29.6551 46.7318 32.0515 44.6672 33.6578C42.6433 35.2323 39.9497 35.9805 37.125 35.9805H30C29.1716 35.9805 28.5 35.3089 28.5 34.4805C28.5 33.652 29.1716 32.9805 30 32.9805H37.125C39.4565 32.9805 41.4504 32.3594 42.825 31.29C44.1588 30.2523 45 28.7299 45 26.643C45 24.6505 44.0539 23.1582 42.6173 22.0911C41.1437 20.9965 39.1905 20.391 37.4258 20.3036C36.6869 20.267 36.085 19.6972 36.0081 18.9614C35.2524 11.7305 30.0554 7.48047 24 7.48047C18.282 7.48047 14.6262 11.2526 13.4284 14.9885C13.2452 15.5598 12.7392 15.967 12.1419 16.0237C6.9729 16.5148 3 19.697 3 24.5055C3 29.3395 7.17705 32.9805 12.75 32.9805H18C18.8284 32.9805 19.5 33.652 19.5 34.4805C19.5 35.3089 18.8284 35.9805 18 35.9805H12.75C5.94795 35.9805 0 31.3939 0 24.5055C0 17.9542 5.18672 14.0403 10.9042 13.1561Z" fill="#616161"/>
<path fill-rule="evenodd" clip-rule="evenodd" d="M22.9393 16.9198C23.5251 16.334 24.4749 16.334 25.0607 16.9198L31.0607 22.9198C31.6464 23.5056 31.6464 24.4553 31.0607 25.0411C30.4749 25.6269 29.5251 25.6269 28.9393 25.0411L24 20.1018L19.0607 25.0411C18.4749 25.6269 17.5251 25.6269 16.9393 25.0411C16.3536 24.4553 16.3536 23.5056 16.9393 22.9198L22.9393 16.9198Z" fill="#616161"/>
<path fill-rule="evenodd" clip-rule="evenodd" d="M24 17.9805C24.8284 17.9805 25.5 18.652 25.5 19.4805V42.0198C25.5 42.8483 24.8284 43.5198 24 43.5198C23.1716 43.5198 22.5 42.8483 22.5 42.0198V19.4805C22.5 18.652 23.1716 17.9805 24 17.9805Z" fill="#616161"/>
</svg>
