<svg width="16" height="16" viewBox="0 0 16 16" fill="none" xmlns="http://www.w3.org/2000/svg">
<path d="M8.00004 8.66671C8.18893 8.66671 8.34737 8.60271 8.47537 8.47471C8.60293 8.34715 8.66671 8.18893 8.66671 8.00004V5.31671C8.66671 5.12782 8.60293 4.97226 8.47537 4.85004C8.34737 4.72782 8.18893 4.66671 8.00004 4.66671C7.81115 4.66671 7.65293 4.73049 7.52537 4.85804C7.39737 4.98604 7.33337 5.14449 7.33337 5.33337V8.01671C7.33337 8.2056 7.39737 8.36115 7.52537 8.48337C7.65293 8.6056 7.81115 8.66671 8.00004 8.66671ZM8.00004 11.3334C8.18893 11.3334 8.34737 11.2694 8.47537 11.1414C8.60293 11.0138 8.66671 10.8556 8.66671 10.6667C8.66671 10.4778 8.60293 10.3194 8.47537 10.1914C8.34737 10.0638 8.18893 10 8.00004 10C7.81115 10 7.65293 10.0638 7.52537 10.1914C7.39737 10.3194 7.33337 10.4778 7.33337 10.6667C7.33337 10.8556 7.39737 11.0138 7.52537 11.1414C7.65293 11.2694 7.81115 11.3334 8.00004 11.3334ZM8.00004 14.6667C7.07782 14.6667 6.21115 14.4916 5.40004 14.1414C4.58893 13.7916 3.88337 13.3167 3.28337 12.7167C2.68337 12.1167 2.20849 11.4112 1.85871 10.6C1.50849 9.78893 1.33337 8.92226 1.33337 8.00004C1.33337 7.07782 1.50849 6.21115 1.85871 5.40004C2.20849 4.58893 2.68337 3.88337 3.28337 3.28337C3.88337 2.68337 4.58893 2.20826 5.40004 1.85804C6.21115 1.50826 7.07782 1.33337 8.00004 1.33337C8.92226 1.33337 9.78893 1.50826 10.6 1.85804C11.4112 2.20826 12.1167 2.68337 12.7167 3.28337C13.3167 3.88337 13.7916 4.58893 14.1414 5.40004C14.4916 6.21115 14.6667 7.07782 14.6667 8.00004C14.6667 8.92226 14.4916 9.78893 14.1414 10.6C13.7916 11.4112 13.3167 12.1167 12.7167 12.7167C12.1167 13.3167 11.4112 13.7916 10.6 14.1414C9.78893 14.4916 8.92226 14.6667 8.00004 14.6667ZM8.00004 13.3334C9.47782 13.3334 10.7363 12.814 11.7754 11.7754C12.814 10.7363 13.3334 9.47782 13.3334 8.00004C13.3334 6.52226 12.814 5.26382 11.7754 4.22471C10.7363 3.18604 9.47782 2.66671 8.00004 2.66671C6.52226 2.66671 5.26404 3.18604 4.22537 4.22471C3.18626 5.26382 2.66671 6.52226 2.66671 8.00004C2.66671 9.47782 3.18626 10.7363 4.22537 11.7754C5.26404 12.814 6.52226 13.3334 8.00004 13.3334Z" fill="#EF1446"/>
</svg>
