<svg width="16" height="16" viewBox="0 0 16 16" fill="none" xmlns="http://www.w3.org/2000/svg">
<path d="M7.99998 11.3334C8.18887 11.3334 8.34731 11.2694 8.47531 11.1414C8.60287 11.0138 8.66665 10.8556 8.66665 10.6667V7.98337C8.66665 7.79449 8.60287 7.63893 8.47531 7.51671C8.34731 7.39448 8.18887 7.33337 7.99998 7.33337C7.81109 7.33337 7.65287 7.39715 7.52531 7.52471C7.39731 7.65271 7.33331 7.81115 7.33331 8.00004V10.6834C7.33331 10.8723 7.39731 11.0278 7.52531 11.15C7.65287 11.2723 7.81109 11.3334 7.99998 11.3334ZM7.99998 6.00004C8.18887 6.00004 8.34731 5.93604 8.47531 5.80804C8.60287 5.68049 8.66665 5.52226 8.66665 5.33337C8.66665 5.14449 8.60287 4.98604 8.47531 4.85804C8.34731 4.73049 8.18887 4.66671 7.99998 4.66671C7.81109 4.66671 7.65287 4.73049 7.52531 4.85804C7.39731 4.98604 7.33331 5.14449 7.33331 5.33337C7.33331 5.52226 7.39731 5.68049 7.52531 5.80804C7.65287 5.93604 7.81109 6.00004 7.99998 6.00004ZM7.99998 14.6667C7.07776 14.6667 6.21109 14.4916 5.39998 14.1414C4.58887 13.7916 3.88331 13.3167 3.28331 12.7167C2.68331 12.1167 2.20842 11.4112 1.85865 10.6C1.50842 9.78893 1.33331 8.92226 1.33331 8.00004C1.33331 7.07782 1.50842 6.21115 1.85865 5.40004C2.20842 4.58893 2.68331 3.88337 3.28331 3.28337C3.88331 2.68337 4.58887 2.20826 5.39998 1.85804C6.21109 1.50826 7.07776 1.33337 7.99998 1.33337C8.9222 1.33337 9.78887 1.50826 10.6 1.85804C11.4111 2.20826 12.1166 2.68337 12.7166 3.28337C13.3166 3.88337 13.7915 4.58893 14.1413 5.40004C14.4915 6.21115 14.6666 7.07782 14.6666 8.00004C14.6666 8.92226 14.4915 9.78893 14.1413 10.6C13.7915 11.4112 13.3166 12.1167 12.7166 12.7167C12.1166 13.3167 11.4111 13.7916 10.6 14.1414C9.78887 14.4916 8.9222 14.6667 7.99998 14.6667ZM7.99998 13.3334C9.47776 13.3334 10.7362 12.814 11.7753 11.7754C12.814 10.7363 13.3333 9.47782 13.3333 8.00004C13.3333 6.52226 12.814 5.26382 11.7753 4.22471C10.7362 3.18604 9.47776 2.66671 7.99998 2.66671C6.5222 2.66671 5.26398 3.18604 4.22531 4.22471C3.1862 5.26382 2.66665 6.52226 2.66665 8.00004C2.66665 9.47782 3.1862 10.7363 4.22531 11.7754C5.26398 12.814 6.5222 13.3334 7.99998 13.3334Z" fill="#2668CB"/>
</svg>
