<svg width="16" height="16" viewBox="0 0 16 16" fill="none" xmlns="http://www.w3.org/2000/svg">
<g clip-path="url(#clip0_17_5101)">
<path fill-rule="evenodd" clip-rule="evenodd" d="M8.00004 0.666626C8.36823 0.666626 8.66671 0.965103 8.66671 1.33329V3.99996C8.66671 4.36815 8.36823 4.66663 8.00004 4.66663C7.63185 4.66663 7.33337 4.36815 7.33337 3.99996V1.33329C7.33337 0.965103 7.63185 0.666626 8.00004 0.666626Z" fill="#616161"/>
<path fill-rule="evenodd" clip-rule="evenodd" d="M8.00004 11.3334C8.36823 11.3334 8.66671 11.6319 8.66671 12V14.6667C8.66671 15.0349 8.36823 15.3334 8.00004 15.3334C7.63185 15.3334 7.33337 15.0349 7.33337 14.6667V12C7.33337 11.6319 7.63185 11.3334 8.00004 11.3334Z" fill="#616161"/>
<path fill-rule="evenodd" clip-rule="evenodd" d="M2.81526 2.81526C3.07561 2.55491 3.49772 2.55491 3.75807 2.81526L5.64473 4.70192C5.90508 4.96227 5.90508 5.38438 5.64473 5.64473C5.38438 5.90508 4.96227 5.90508 4.70192 5.64473L2.81526 3.75807C2.55491 3.49772 2.55491 3.07561 2.81526 2.81526Z" fill="#616161"/>
<path fill-rule="evenodd" clip-rule="evenodd" d="M10.3553 10.3553C10.6156 10.0949 11.0378 10.0949 11.2981 10.3553L13.1848 12.242C13.4451 12.5023 13.4451 12.9244 13.1848 13.1848C12.9244 13.4451 12.5023 13.4451 12.242 13.1848L10.3553 11.2981C10.0949 11.0378 10.0949 10.6156 10.3553 10.3553Z" fill="#616161"/>
<path fill-rule="evenodd" clip-rule="evenodd" d="M0.666626 8.00004C0.666626 7.63185 0.965103 7.33337 1.33329 7.33337H3.99996C4.36815 7.33337 4.66663 7.63185 4.66663 8.00004C4.66663 8.36823 4.36815 8.66671 3.99996 8.66671H1.33329C0.965103 8.66671 0.666626 8.36823 0.666626 8.00004Z" fill="#616161"/>
<path fill-rule="evenodd" clip-rule="evenodd" d="M11.3334 8.00004C11.3334 7.63185 11.6319 7.33337 12 7.33337H14.6667C15.0349 7.33337 15.3334 7.63185 15.3334 8.00004C15.3334 8.36823 15.0349 8.66671 14.6667 8.66671H12C11.6319 8.66671 11.3334 8.36823 11.3334 8.00004Z" fill="#616161"/>
<path fill-rule="evenodd" clip-rule="evenodd" d="M5.64473 10.3553C5.90508 10.6156 5.90508 11.0378 5.64473 11.2981L3.75807 13.1848C3.49772 13.4451 3.07561 13.4451 2.81526 13.1848C2.55491 12.9244 2.55491 12.5023 2.81526 12.242L4.70192 10.3553C4.96227 10.0949 5.38438 10.0949 5.64473 10.3553Z" fill="#616161"/>
<path fill-rule="evenodd" clip-rule="evenodd" d="M13.1848 2.81526C13.4451 3.07561 13.4451 3.49772 13.1848 3.75807L11.2981 5.64473C11.0378 5.90508 10.6156 5.90508 10.3553 5.64473C10.0949 5.38438 10.0949 4.96227 10.3553 4.70192L12.242 2.81526C12.5023 2.55491 12.9244 2.55491 13.1848 2.81526Z" fill="#616161"/>
</g>
<defs>
<clipPath id="clip0_17_5101">
<rect width="16" height="16" fill="white"/>
</clipPath>
</defs>
</svg>
