<svg width="24" height="24" viewBox="0 0 24 24" fill="none" xmlns="http://www.w3.org/2000/svg">
<path d="M7.56543 9.64738C7.56543 10.6559 8.383 11.4735 9.39152 11.4735C10.4 11.4735 11.2176 10.6559 11.2176 9.64738C11.2176 8.63886 10.4 7.82129 9.39152 7.82129C8.383 7.82129 7.56543 8.63886 7.56543 9.64738Z" stroke="#156EF3" stroke-width="1.5" stroke-linecap="round" stroke-linejoin="round"/>
<path d="M6.26074 15.1314C6.26074 13.4025 7.66229 12.001 9.39118 12.001C11.1201 12.001 12.5216 13.4025 12.5216 15.1314H6.26074Z" stroke="#156EF3" stroke-width="1.5" stroke-linecap="round" stroke-linejoin="round"/>
<path d="M13.5654 9.91309H16.6959" stroke="#156EF3" stroke-width="1.5" stroke-linecap="round" stroke-linejoin="round"/>
<path d="M13.5654 12.001H17.7393" stroke="#156EF3" stroke-width="1.5" stroke-linecap="round" stroke-linejoin="round"/>
<path d="M18.7825 5.74121H5.21731C4.64101 5.74121 4.17383 6.20839 4.17383 6.78469V17.2195C4.17383 17.7958 4.64101 18.263 5.21731 18.263H7.30426C7.30426 17.6867 7.77144 17.2195 8.34774 17.2195C8.92404 17.2195 9.39122 17.6867 9.39122 18.263H14.6086C14.6086 17.6867 15.0758 17.2195 15.6521 17.2195C16.2284 17.2195 16.6956 17.6867 16.6956 18.263H18.7825C19.3588 18.263 19.826 17.7958 19.826 17.2195V6.78469C19.826 6.20839 19.3588 5.74121 18.7825 5.74121Z" stroke="#156EF3" stroke-width="1.5" stroke-linecap="round" stroke-linejoin="round"/>
<path d="M0.571429 0C0.247619 0 0 0.247619 0 0.571429V4.38095C0 4.70476 0.247619 4.95238 0.571429 4.95238C0.895238 4.95238 1.14286 4.70476 1.14286 4.38095V1.14286H4.38095C4.70476 1.14286 4.95238 0.895238 4.95238 0.571429C4.95238 0.247619 4.70476 0 4.38095 0H0.571429ZM19.619 0C19.2952 0 19.0476 0.247619 19.0476 0.571429C19.0476 0.895238 19.2952 1.14286 19.619 1.14286H22.8571V4.38095C22.8571 4.70476 23.1048 4.95238 23.4286 4.95238C23.7524 4.95238 24 4.70476 24 4.38095V0.571429C24 0.247619 23.7524 0 23.4286 0H19.619ZM0.571429 19.0476C0.247619 19.0476 0 19.2952 0 19.619V23.4286C0 23.7524 0.247619 24 0.571429 24H4.38095C4.70476 24 4.95238 23.7524 4.95238 23.4286C4.95238 23.1048 4.70476 22.8571 4.38095 22.8571H1.14286V19.619C1.14286 19.2952 0.895238 19.0476 0.571429 19.0476ZM23.4286 19.0476C23.1048 19.0476 22.8571 19.2952 22.8571 19.619V22.8571H19.619C19.2952 22.8571 19.0476 23.1048 19.0476 23.4286C19.0476 23.7524 19.2952 24 19.619 24H23.4286C23.7524 24 24 23.7524 24 23.4286V19.619C24 19.2952 23.7524 19.0476 23.4286 19.0476Z" fill="#77ABF9"/>
</svg>
