<svg width="120" height="120" viewBox="0 0 120 120" fill="none" xmlns="http://www.w3.org/2000/svg">
<g clip-path="url(#clip0_43_29132)">
<path d="M15 15H30V30H15V15Z" fill="#1A1A1A"/>
<path d="M45 0V45H0V0H45ZM37.5 7.5H7.5V37.5H37.5V7.5ZM30 90H15V105H30V90Z" fill="#1A1A1A"/>
<path d="M45 75V120H0V75H45ZM7.5 82.5V112.5H37.5V82.5H7.5ZM90 15H105V30H90V15Z" fill="#1A1A1A"/>
<path d="M75 0V45H120V0H75ZM112.5 7.5V37.5H82.5V7.5H112.5ZM60 7.5V0H67.5V15H60V30H52.5V7.5H60ZM60 45V30H67.5V45H60ZM45 60V52.5H52.5V45H60V60H67.5V52.5H105V60H75V67.5H52.5V60H45ZM45 60V67.5H15V60H7.5V67.5H0V52.5H22.5V60H45ZM120 67.5H112.5V52.5H120V67.5ZM112.5 67.5H105V82.5H120V75H112.5V67.5ZM82.5 67.5H97.5V75H90V82.5H82.5V67.5ZM97.5 90V82.5H90V90H82.5V97.5H67.5V105H90V90H97.5ZM97.5 90H120V97.5H105V105H97.5V90ZM67.5 82.5V90H75V75H52.5V82.5H67.5Z" fill="#1A1A1A"/>
<path d="M52.5 90H60V112.5H90V120H52.5V90ZM120 105V120H97.5V112.5H112.5V105H120Z" fill="#1A1A1A"/>
</g>
<defs>
<clipPath id="clip0_43_29132">
<rect width="120" height="120" fill="white"/>
</clipPath>
</defs>
</svg>
